<svg width="262" height="11" viewBox="0 0 262 11" fill="none" xmlns="http://www.w3.org/2000/svg">
<g clip-path="url(#clip0_1_11)">
<g clip-path="url(#clip1_1_11)">
<g clip-path="url(#clip2_1_11)">
<path d="M247.027 6.84895C239.429 6.4958 232.576 6.55317 225.385 6.54527C211.348 6.52746 197.315 5.15837 183.279 5.20585C151.844 5.33049 119.923 4.54208 88.3752 5.83895C79.0574 6.21585 69.7511 6.53537 60.5272 7.07745C59.6423 7.12592 58.7661 7.17638 57.8769 7.23375C49.2232 7.75013 37.9256 7.44841 29.3241 7.99052C21.7503 8.71065 15.8816 9.61381 8.63099 9.36749C6.70729 9.19738 4.65775 8.88969 3.50389 8.26745C0.985848 6.93105 -0.185281 5.70848 1.0336 4.68944C1.43049 4.3541 2.11583 4.00885 2.85322 3.69822C4.29335 3.12054 6.02187 2.66844 6.96097 2.62886C23.1706 1.84143 41.5601 1.69306 56.2085 1.55259C63.4392 1.48631 70.9047 1.39629 80.0333 1.22515C101.12 0.979822 134.373 0.821534 155.482 0.585133C173.926 0.372451 192.419 1.54469 210.685 2.41619C217.63 2.74561 222.002 2.7456 228.229 2.83561C229.268 2.84154 230.444 2.85935 231.65 2.87518C237.803 2.9652 248.885 2.52204 252.464 3.37475C256.047 4.23635 258.547 4.32638 261.677 5.9102C261.842 7.47219 260.582 8.19331 258.983 8.45556C255.255 9.07972 251.84 9.77713 248.939 9.9918C245.543 10.2371 242.804 10.247 242.248 9.65645C241.71 9.06393 242.014 8.69693 242.552 8.42583C243.489 7.9827 245.178 7.49794 246.69 7.16954L247.027 6.84895Z" fill="#FEB701" fill-opacity="0.8"/>
</g>
</g>
</g>
<defs>
<clipPath id="clip0_1_11">
<rect width="261.44" height="9.59" fill="white" transform="translate(0.399994 0.559814)"/>
</clipPath>
<clipPath id="clip1_1_11">
<rect width="261.44" height="9.59" fill="white" transform="translate(0.399994 0.559814)"/>
</clipPath>
<clipPath id="clip2_1_11">
<rect width="261.143" height="9.59" fill="white" transform="translate(0.548462 0.559814)"/>
</clipPath>
</defs>
</svg>
