<svg width="31" height="31" viewBox="0 0 31 31" fill="none" xmlns="http://www.w3.org/2000/svg">
<rect x="1.29999" y="1.35059" width="29" height="29" rx="14.5" stroke="black" stroke-opacity="0.333"/>
<path d="M15.8031 12.2569C13.8156 12.2569 12.2125 13.8601 12.2125 15.8476C12.2125 17.8351 13.8156 19.4382 15.8031 19.4382C17.7906 19.4382 19.3937 17.8351 19.3937 15.8476C19.3937 13.8601 17.7906 12.2569 15.8031 12.2569ZM15.8031 18.1819C14.5187 18.1819 13.4687 17.1351 13.4687 15.8476C13.4687 14.5601 14.5156 13.5132 15.8031 13.5132C17.0906 13.5132 18.1375 14.5601 18.1375 15.8476C18.1375 17.1351 17.0875 18.1819 15.8031 18.1819ZM20.3781 12.1101C20.3781 12.5757 20.0031 12.9476 19.5406 12.9476C19.075 12.9476 18.7031 12.5726 18.7031 12.1101C18.7031 11.6476 19.0781 11.2726 19.5406 11.2726C20.0031 11.2726 20.3781 11.6476 20.3781 12.1101ZM22.7562 12.9601C22.7031 11.8382 22.4469 10.8444 21.625 10.0257C20.8062 9.20693 19.8125 8.95068 18.6906 8.89443C17.5344 8.82881 14.0687 8.82881 12.9125 8.89443C11.7937 8.94756 10.8 9.20381 9.97811 10.0226C9.15623 10.8413 8.90311 11.8351 8.84686 12.9569C8.78123 14.1132 8.78123 17.5788 8.84686 18.7351C8.89998 19.8569 9.15623 20.8507 9.97811 21.6694C10.8 22.4882 11.7906 22.7444 12.9125 22.8007C14.0687 22.8663 17.5344 22.8663 18.6906 22.8007C19.8125 22.7476 20.8062 22.4913 21.625 21.6694C22.4437 20.8507 22.7 19.8569 22.7562 18.7351C22.8219 17.5788 22.8219 14.1163 22.7562 12.9601ZM21.2625 19.9757C21.0187 20.5882 20.5469 21.0601 19.9312 21.3069C19.0094 21.6726 16.8219 21.5882 15.8031 21.5882C14.7844 21.5882 12.5937 21.6694 11.675 21.3069C11.0625 21.0632 10.5906 20.5913 10.3437 19.9757C9.97811 19.0538 10.0625 16.8663 10.0625 15.8476C10.0625 14.8288 9.98123 12.6382 10.3437 11.7194C10.5875 11.1069 11.0594 10.6351 11.675 10.3882C12.5969 10.0226 14.7844 10.1069 15.8031 10.1069C16.8219 10.1069 19.0125 10.0257 19.9312 10.3882C20.5437 10.6319 21.0156 11.1038 21.2625 11.7194C21.6281 12.6413 21.5437 14.8288 21.5437 15.8476C21.5437 16.8663 21.6281 19.0569 21.2625 19.9757Z" fill="black"/>
</svg>
